<?xml version="1.0" encoding="utf-8"?>
<!-- Generator: Adobe Illustrator 19.1.0, SVG Export Plug-In . SVG Version: 6.00 Build 0)  -->
<svg version="1.2" baseProfile="tiny" id="Camada_1"
	 xmlns="http://www.w3.org/2000/svg" xmlns:xlink="http://www.w3.org/1999/xlink" x="0px" y="0px" viewBox="150 -150 600 600"
	 xml:space="preserve">
<g id="_x30_8wIig.tif">
	<g>
		<path fill="#0272BC" d="M553.7-0.7c44.1,64.2,47.4,130.5,9.5,198.6c-2.7,4.8-6.4,9.1-9.6,13.6c-24.4-8.4-41.5-24.9-53.4-47.3
			c31.2-53.8,14-149.1-66.6-169.1C368.3-21,306.2,26.7,302.5,95.2c-1.2,22.3,1.2,44,11,64.5c20,41.8,63,65.1,108.8,58.1
			c9-1.4,14.9-0.2,20.8,7.6c11.8,15.5,27.2,27.5,44.3,39c-9.3,6.1-19,8.9-28.6,11.6c-9.4,2.7-19.2,4.4-30.2,6.9
			c16.1,7.4,31.4,12.7,47.5,15.5c16.3,2.8,32.7,2,50,1.7c-4.6,16.6-8.3,32.6-13.6,48c-7,20.3-21.1,27.3-42,22
			c-13.2-3.4-24.9-10.3-36.6-16.9c-27.9-15.5-54.2-33.7-83.1-47.5c-23-10.9-46.7-17.7-72.5-13.7c-10.8,1.7-20.3,5.5-27.2,16.8
			c-6.8-16.4-13.2-31.7-19.5-47c-1.7-4.1,1.9-5.1,4.4-6.4c13.2-7,27.3-11.3,42.2-12.8c3.9-0.4,7.7-0.8,11.3-1.1c1-2.8-0.9-3.5-2-4.5
			c-31.4-27.5-50.4-62-57.4-103.1c-0.4-2.6,0.9-6.2-2.6-7.9c0-13.2,0-26.4,0-39.5c4.1-6.9,3.6-14.9,5.4-22.4
			c16.7-69.6,78.5-124.8,149.3-134c42.3-5.5,81.7,2.4,118.7,23C521-34.5,538.4-18.9,553.7-0.7z"/>
		<path fill="#A6CE3A" d="M500.1,164.2c11.9,22.4,29.1,39,53.4,47.3c44.8,15.9,83.9,6.8,117.3-27c2.9,1.4,1.7,4,1.7,6.1
			c0.1,22.1-0.1,44.1,0.2,66.2c0.1,5.9-1.9,8.8-7.2,11.1c-107.6,47-234-19.6-251.9-134.2c-6.4-41,0.7-79.8,21-116.3
			c4.3-7.8,8.2-8.1,15.3-4.3C467.8,23,481.1,37,491,54.7c2.6,4.6,1.6,8.5,0.4,13.1C482.6,100.9,483,133.3,500.1,164.2z"/>
		<path fill="#A6CE3A" d="M553.7-0.7c-15.3-18.2-32.7-33.8-53.1-46.1c53.4-29.8,108.3-33,164.8-9.3c3.6,1.5,7.3,2.5,7.3,7.9
			c-0.2,24.9-0.1,49.8-0.1,77.2C637.9-6.7,598.7-16.4,553.7-0.7z"/>
	</g>
</g>
</svg>
