<svg version="1.2" baseProfile="tiny" xmlns="http://www.w3.org/2000/svg" viewBox="0 0 350.3 146.5"><path fill="#B0CC49" d="M27.4 41.7l-7.2 7.4c2.1-2.7 4.5-5.2 7.2-7.4m21.2 90.1l-3.4 3.5c0-.3 0-.6.1-.9l3.3-3.4c-.1.2 0 .5 0 .8zm0 1.7l-3.6 3.7c0-.3 0-.6.1-.9l3.5-3.6v.8zm0 1.8l-3.7 3.8c0-.3.1-.6.1-1l3.7-3.7c-.1.3-.1.6-.1.9zm-.2 1.9l-2.6 2.7c-.2-.1-.4-.1-.6-.2l3.3-3.4c0 .2 0 .6-.1.9zm42.2-41.6l-3.4 3.5c.8-1.1 1.8-2.5 2.9-3.9l.6-.6-.1 1zm-42.5 43.7l-1 1c-.2-.1-.4-.1-.6-.2l1.8-1.9c-.1.4-.1.7-.2 1.1zm42.3-41.6l-4.8 5c.1-.5.3-.9.5-1.4l4.5-4.6-.2 1zm-42.6 42.8zm42.3-40.8l-5.1 5.2c.1-.4.1-.7.2-1.1l5-5.1-.1 1zm-.3 2l-5 5.2c0-.3 0-.6.1-1l5.1-5.2-.2 1zm-.2 2l-4.9 5v-.9l5-5.1-.1 1zm-.3 2l-4.6 4.7v-.9l4.7-4.9-.1 1.1zm-.3 2.1l-4.4 4.5v-.9l4.5-4.6-.1 1zm-.2 2l-4.2 4.3v-.9l4.3-4.4-.1 1zm-.3 2l-4.1 4.2c0-.3.1-.7.1-1l4.1-4.2-.1 1zm-.3 2l-4.2 4.4c.1-.4.2-.7.2-1.1l4.1-4.3-.1 1zm-.2 2l-4.7 4.8c.1-.4.3-.8.4-1.3l4.4-4.5-.1 1zm-.3 2.1l-5.3 5.4c.2-.5.3-.9.5-1.4l4.9-5.1-.1 1.1zm-.3 2l-6.1 6.3c.2-.5.4-1 .5-1.4l5.7-5.8-.1.9zm-.2 2l-6.9 7.1c.2-.5.4-.9.5-1.4l6.5-6.7-.1 1zm-.3 2l-7.6 7.8c.1-.4.3-.9.4-1.3l7.3-7.5-.1 1zm-.3 2l-8 8.2.3-1.2 7.8-8-.1 1zm-.2 2.1l-8.2 8.4c.1-.4.1-.7.2-1.1l8.1-8.3-.1 1zm0 1.7l-8.4 8.6c0-.3 0-.6.1-.9v-.1l8.2-8.4c0 .3 0 .5.1.8zm.5 1.2L78 140v-.8l8.6-8.9.3.6zm.8 1l-8.5 8.7c-.4.1-.7.2-1.1.3v-.1l9.2-9.4c.1.2.2.3.4.5zm.9.7l-6.9 7.1c-.4.2-.9.3-1.3.4l7.7-7.9c.2.2.3.3.5.4zm1.1.7l-5.3 5.4c-.5.2-.9.4-1.4.6l6.1-6.3.6.3zm1.2.5l-3.4 3.5c-.5.3-1.1.5-1.6.8l4.4-4.5c.2 0 .4.1.6.2zm1.3.4c-.8.7-1.7 1.4-2.8 2l2.2-2.2c.1.1.3.1.6.2zM74 28.8L8.3 96.2c0-.2-.1-.5-.1-.7l65-66.7c.3-.1.5 0 .8 0zm1.4.3L8.6 97.6c0-.2-.1-.5-.1-.7L74.7 29c.2 0 .5.1.7.1zm1.4.3L8.9 99c-.1-.2-.1-.5-.2-.7l67.4-69.1c.2.1.5.2.7.2zm1.4.4L9.3 100.4c-.1-.2-.1-.5-.2-.7l68.4-70.2c.2.1.4.2.7.3zm1.3.3l-24.4 25c-.8.4-1.6.9-2.3 1.5l26-26.6c.3 0 .5.1.7.1zM47.7 62.8l-38 39c-.1-.2-.1-.5-.2-.7l40-41c-.7.9-1.3 1.8-1.8 2.7zm33.1-32.3l-23 23.6c-.4.1-.8.2-1.2.4l23.6-24.2c.2.1.4.2.6.2zM46.2 66.1l-36.2 37c-.1-.2-.1-.4-.2-.7l36.9-37.9c-.1.6-.3 1.1-.5 1.6zM82.1 31L59.8 53.9c-.3 0-.6 0-.9.1l22.6-23.2c.2 0 .4.1.6.2zM45.5 68.6l-35 35.9c-.1-.2-.1-.4-.2-.7l35.5-36.4c-.2.4-.3.8-.3 1.2zm37.9-37.2l-22 22.5c-.2 0-.4 0-.6-.1h-.2l22.1-22.7c.2.2.4.3.7.3zM45.1 70.6l-34.2 35.1c-.1-.2-.2-.4-.2-.6l34.6-35.5c-.1.4-.1.7-.2 1zm39.5-38.7L62.9 54.2c-.2-.1-.5-.1-.7-.2L84 31.7c.2.1.4.1.6.2zM45.1 72.4L11.4 107c-.1-.2-.2-.4-.2-.6l33.9-34.8v.8zm40.7-40L64.2 54.6c-.2-.1-.4-.2-.6-.2l21.7-22.2c.1.1.3.1.5.2zM45.3 74l-33.4 34.3-.3-.6 33.5-34.4c.1.2.2.4.2.7zM87 33L65.4 55.1c-.2-.1-.4-.1-.6-.2l21.6-22.2.6.3zM45.7 75.3l-33.3 34.1-.3-.6 33.3-34.2c.1.3.2.5.3.7zm42.4-41.8L66.5 55.8c-.2-.1-.4-.2-.5-.3l21.6-22.2c.2 0 .4.1.5.2zM46.3 76.4L13 110.6l-.3-.6L46 75.9c.1.2.2.4.3.5zm43-42.3L67.5 56.5c-.2-.1-.3-.2-.5-.4l21.7-22.3.6.3zM47 77.4l-33.5 34.4-.3-.6L46.6 77c.2.1.3.3.4.4zm43.4-42.7l-22 22.5c-.2-.1-.3-.3-.5-.4l21.9-22.5c.2.2.4.3.6.4zM48 78.2l-33.8 34.7-.3-.6 33.6-34.5c.1.2.3.3.5.4zm43.5-42.9L69.3 58.1l-.4-.4 22-22.7.6.3zM49.1 78.8L14.8 114l-.3-.6 34.1-34.9c.1.1.3.2.5.3zM92.6 36L70.2 59c-.1-.2-.3-.3-.4-.5L92 35.6c.2.2.4.3.6.4zm-43 44.1l-34.2 35.1c-.1-.2-.2-.4-.3-.5l34.3-35.2c0 .1.1.3.2.6zm44-43.5L70.9 59.9c-.1-.2-.3-.3-.4-.5L93 36.3c.3.1.4.2.6.3zM50.1 81.3l-34 34.9c-.1-.2-.2-.4-.3-.5l34.1-35c0 .2.1.4.2.6zm44.6-44l-23 23.6c-.1-.2-.2-.3-.4-.5L94.1 37l.6.3zM50.6 82.5l-33.9 34.8c-.1-.2-.2-.3-.3-.5l34-34.8c0 .1.1.3.2.5zM95.7 38L72.4 61.9c-.1-.2-.2-.4-.3-.5l23.1-23.7c.1.1.3.2.5.3zM51.2 83.6l-33.8 34.7c-.1-.2-.2-.3-.4-.5L50.9 83l.3.6zm45.5-44.9L73 63l-.3-.6 23.5-24.1c.1.2.3.3.5.4zm-44.8 46l-33.8 34.6c-.1-.2-.2-.3-.4-.5l33.8-34.7c.2.2.3.4.4.6zm45.7-45.2l-24 24.7-.3-.6 23.9-24.5.4.4zm-45 46.2l-33.8 34.6c-.1-.2-.2-.3-.4-.5l33.8-34.6c.2.1.3.3.4.5zm46-45.4L74.1 65.4l-.3-.6 24.3-24.9c.2.1.4.2.5.4zM53.4 86.6l-33.8 34.6c-.1-.2-.3-.3-.4-.5L53 86.1c.1.2.3.4.4.5zM99.6 41l-25 25.6c-.1-.2-.1-.4-.2-.6l24.7-25.4c.1.2.3.3.5.4zM53.9 87.9l-33.5 34.3c-.1-.2-.3-.3-.4-.5L53.8 87c.1.4.1.6.1.9zm46.6-46.1L74.9 68c-.1-.2-.1-.5-.2-.7L100 41.4c.1.1.2.1.3.2l.2.2zM54 89.6l-32.8 33.6c-.1-.2-.3-.3-.4-.5l33.1-34c0 .3 0 .6.1.9zm47.4-47L75.2 69.5c0-.2-.1-.5-.1-.7L101 42.2l.4.4zM53.9 91.3L37.7 108c-1.1.4-2.1 1.2-3 2.6-.2.3-.3.6-.4 1L22 124.1c-.1-.2-.3-.3-.4-.5L54 90.4c0 .3 0 .6-.1.9zm48.4-47.9L75.4 71c0-.3 0-.5-.1-.8L101.9 43c.1.2.3.3.4.4zM53.9 93.1l-14 14.4c-.3 0-.7.1-1 .1L54 92.2c-.1.3-.1.6-.1.9zm-20.1 20.6l-11 11.3-.4-.4L34 112.7c-.1.3-.1.6-.2 1zm69.4-69.4L91.3 56.5l-.9.1 12.4-12.7c.1.1.3.2.4.4zm-12 12.3L75.4 72.8v-.9l14.9-15.3h.9zM53.7 95.1l-12 12.3H40.8l13-13.4c-.1.4-.1.8-.1 1.1zm-20 20.5l-10 10.2-.4-.4 10.5-10.7c-.1.3-.1.6-.1.9zm70.4-70.5L93.2 56.3l-.9.1 11.4-11.7c.1.1.2.3.4.4zM92.7 56.8L74.9 75l.3-1.2 16.7-17.1.8.1zM53.3 97.3l-9.8 10c-.3 0-.6.1-.9.1l11-11.2c-.2.3-.2.7-.3 1.1zm-19.7 20.1l-9.1 9.3-.4-.4 9.5-9.8v.9zm70.6-70.7L95 56.1l-.9.1 10.4-10.6.2.2c-.1.2-.3.5-.4.7l-.1.2zm-9.9 10.2L70.4 81.4l.6-1.5 2.1-2.1c.3-.3.6-.5.8-.8l19.7-20.2.7.1zm-41.9 43l-6.7 6.9c-.4.2-.8.3-1.2.4l8.4-8.6c-.1.3-.3.8-.5 1.3zm-18.8 19.3l-8.2 8.4-.4-.4 8.6-8.8v.8zm69.7-69.8L96.9 56l-.9.1 7.8-8c-.2.4-.4.9-.5 1.3zm-7.6 7.9L67.6 86.1c.7-.9 1.4-1.9 1.9-2.9L95.1 57l.6.1v.2zm-62.1 63.6l-7.3 7.5c-.2-.1-.3-.3-.5-.4l7.7-7.9c.1.2.1.5.1.8zm13.8-15l4-4.1c-1 1.5-2 2.7-3.1 3.5l-.9.6zM102.5 52l-3.7 3.8-.9.1 5-5.2c-.2.5-.3.9-.4 1.3zM97 57.6l-.3.4.1-.8h.2v.4zm-1.6 1.7L66.6 88.8v-.9l28.9-29.6-.1 1zm-61.7 63.3l-6.4 6.6c-.2-.1-.3-.3-.5-.4l6.9-7v.8zm68-68.1l-1.1 1.1-.9.1 2.4-2.4c-.1.4-.3.8-.4 1.2zM99 57.4l-.8.8-.1-.8.1-.1.8.1zm-1.8 1.8l-.8.8.1-1 .6-.6.1.8zm-2.1 2.1L66.6 90.6v-.9l28.7-29.4-.2 1zm-61.4 63l-5.5 5.7c-.2-.1-.3-.3-.5-.4l6-6.1V124.3zm66.8-66.8l-2.1 2.2-.1-.8 1.5-1.5.7.1zm-3.1 3.2L96.2 62l.1-1 1-1.1.1.8zm-2.5 2.6l-28.2 29v-.8L95 62.3l-.1 1zM33.8 126l-4.6 4.7c-.2-.1-.3-.3-.5-.4l5.1-5.2v.9zm66.5-66.5l-1.7 1.8-.1-.8 2.1-2.2-.3 1.2zm-2.7 2.7L95.9 64l.1-1 1.5-1.5.1.7zm-3 3.1L66.7 93.9v-.3-.5l28.1-28.8-.2 1zm-60.8 62.4l-3.7 3.8c-.2-.1-.3-.2-.5-.4l4.2-4.3v.9zm65.9-65.9l-.9.9-.1-.7 1.3-1.3-.3 1.1zm-1.9 2L95.6 66l.1-1 2-2 .1.8zm-3.5 3.6L66.9 95.5c0-.3-.1-.5-.1-.8l27.6-28.4-.1 1.1zm-60.4 62l-2.8 2.8c-.2-.1-.3-.2-.5-.4l3.2-3.3c.1.3.1.6.1.9zm65.2-65.2l-.2-.7.5-.5-.3 1.2zM98 65.3L95.3 68l.1-1 2.4-2.5.2.8zm-3.9 4.1L67.5 96.6c-.1-.2-.2-.3-.3-.5l27-27.7-.1 1zm-60.2 61.7l-1.8 1.8c-.2-.1-.3-.2-.5-.4l2.3-2.3v.9zm64.3-64.2l-3.1 3.2.1-1 2.9-3 .1.8zm-4.4 4.5l-25.3 26c-.2-.1-.4-.2-.5-.3l26-26.6-.2.9zm-59.9 61.4l-.7.8c-.2-.1-.3-.2-.5-.3L34 132c-.1.3-.1.5-.1.8zm63.7-63.5l-2.8 2.8.1-1 3.1-3.2c-.1.5-.3.9-.4 1.4zm-4.1 4.1L81.4 85.9c-.5.5-1 1-1.4 1.5L69.9 97.7c-.3 0-.5 0-.7-.1l24.6-25.2-.3 1zm-59.8 60.5l.2-.2v.4c-.1-.1-.2-.1-.2-.2zm62.6-61.6l-1.8 1.8.1-1 2.4-2.4c-.2.6-.4 1.1-.7 1.6zm-3 3.1L88.9 80c-1.1.8-2.2 1.6-3.2 2.4l7.8-8-.2 1zm-18 18.4L72 97.2c-.3.2-.6.3-1 .4h-.3l6.7-6.9c-.6 1.1-1.3 2.2-2.1 3.1zm-30 32.6zm.8.9l-.8.8v-.9l.4-.4c.1.2.3.3.4.5zm.9.8l-1.7 1.8v-.9l1.2-1.3c.2.1.4.3.5.4zm1.1.7l-2.8 2.9v-.9l2.2-2.3.6.3zM33.6 37.1L15.7 55.4c.5-.9 1.1-1.7 1.7-2.6l13.6-14c.8-.6 1.7-1.2 2.6-1.7zm3.9-2.4l-24 24.7c.3-.6.6-1.3 1-1.9l21.2-21.7c.6-.4 1.2-.7 1.8-1.1zm3.3-1.6L12 62.7c.2-.5.5-1.1.7-1.6l26.6-27.3c.5-.2 1-.4 1.5-.7zm3-1.2l-33 33.7c.2-.5.3-.9.5-1.4l31-31.8c.5-.2 1-.3 1.5-.5zm2.6-1L10 68.3c.1-.4.3-.9.4-1.3l34.7-35.6c.4-.2.9-.3 1.3-.5zm2.4-.8L9.3 70.7l.3-1.2 38-39c.4-.1.8-.2 1.2-.4zm2.3-.6L8.8 73c.1-.4.2-.8.3-1.1l41-42c.3-.2.7-.3 1-.4zm2.2-.4l-45 46.1c.1-.4.1-.7.2-1.1l43.7-44.8c.4-.1.8-.2 1.1-.2zm2.1-.4L8 77.3c0-.3.1-.7.2-1l46.2-47.4c.3-.1.6-.2 1-.2zm2-.3L7.8 79.3c0-.3.1-.7.1-1l48.5-49.7c.3-.1.6-.2 1-.2zm1.9-.2l-51.7 53c0-.3.1-.6.1-1l50.7-52h.9zm1.8-.2L7.5 83v-.9l52.7-54c.3 0 .6 0 .9-.1zm1.8 0L7.4 84.8v-.9L62 28h.9zm1.7 0L7.4 86.6v-.8-.1L63.7 28c.3 0 .6-.1.9 0zm1.7 0L7.5 88.3v-.8l58-59.5h.8zm1.6.1L7.6 90c0-.3 0-.5-.1-.8L67.1 28c.3 0 .5.1.8.1zm1.6.1L7.7 91.6c0-.3 0-.5-.1-.8l61.1-62.6c.3-.1.5 0 .8 0zm1.5.2L7.9 93.1c0-.3-.1-.5-.1-.8l62.5-64.1c.2.1.5.1.7.2zm1.5.2L8.1 94.7c-.1-.3-.1-.5-.1-.8l63.8-65.4c.2 0 .5 0 .7.1zM48.4 130.2l-3.2 3.3v-.9l3.1-3.1c.1.1.1.4.1.7z"/><path fill="#B0CC49" d="M12.3 85.1c0-16.6 4.6-29.7 13.9-39.3s21.9-14.4 38-14.4c16 0 28.6 4.8 37.8 14.4 9.3 9.6 13.9 22.7 13.9 39.3s-4.6 29.7-13.9 39.3c-9.2 9.6-21.9 14.4-37.8 14.4-16 0-28.7-4.8-38-14.4-9.3-9.6-13.9-22.7-13.9-39.3m32.3.1c0 9.7 1.6 16.7 4.7 21.3 3.2 4.5 8.1 6.8 14.8 6.8s11.6-2.2 14.7-6.8c3.1-4.5 4.7-11.6 4.7-21.3S82 68.4 78.8 63.9c-3.1-4.5-8-6.8-14.7-6.8s-11.7 2.3-14.8 6.8-4.7 11.6-4.7 21.3zM107.5 136l35.1-101.9h32.5L210.2 136h-31.8l-3.7-13.5h-31.8L139 136h-31.5m41.2-34.9h20.1l-9.9-35.3-10.2 35.3zM215.3 136V34.1h40.9c8.8 0 15.2.2 19.2.7s7.5 1.2 10.4 2.3c5.1 1.9 8.9 5 11.6 9 2.7 4.1 4 9.1 4 15 0 4.6-1 8.6-3 12.1-2 3.4-5 6.3-9.1 8.5 5.3 1.9 9.2 4.8 11.7 8.7 2.5 3.9 3.8 8.9 3.8 15.1 0 6-1.2 11.3-3.7 15.8-2.4 4.4-6 7.9-10.7 10.3-3.2 1.7-6.8 2.8-10.8 3.5-4.1.7-10.8 1-20.2 1l-44.1-.1m31-61.2h13.2c4.4 0 7.5-.7 9.3-2s2.7-3.6 2.7-6.8c0-3.4-1-5.7-2.9-6.9-1.9-1.3-6.4-1.9-13.5-1.9h-8.9l.1 17.6zm0 37.4h14.8c4.9 0 8.4-.7 10.5-2.2s3.1-3.9 3.1-7.3-1.1-5.8-3.2-7.2c-2.1-1.4-5.7-2.1-10.7-2.1h-14.5v18.8z"/><path fill="#4070B7" d="M80.5 116.9c-1.5-4.1-1.6-10-1.8-16.6-.1-3.2-.1-6.6-.4-10-7.7 11.6-11.4 29.4-21.8 35.4 4.1-1.5 2.9-1.8 6.5-2.7 3.5-1 7.7 1.8 12.2 0 2.2-.9 4.4-2.6 5.3-6.1m2.4 3.8c-.8-.6-1.4-1.5-1.9-2.5-.6 3.5-2.7 5.4-5 6.3-5.3 2.1-9.1-1.5-12.5-.6-4.4 1.2-5.2 4.9-12.9 4.2h-.4c.1 6.3-.6 10.4-2 14.3l.1-.2c9.8 3 20.4 3.4 30.8.6v.1c-.4-2.2-.6-4.6-.4-6.3.5-5.6 2.6-10.7 4.2-15.9z"/><path fill="#FFF" d="M285.8 25.3l-.4-1.6c-.8.7-1.7 1.3-2.7 1.6-1 .4-2.1.5-3.3.5-1.8 0-3.3-.5-4.3-1.4s-1.5-2.2-1.5-3.9c0-1.6.5-2.8 1.5-3.6 1-.8 2.9-1.3 5.6-1.7.3-.1.8-.1 1.4-.2 2.1-.2 3.1-.8 3.1-1.6 0-.5-.2-.8-.6-1s-1-.3-1.8-.3c-.7 0-1.2.1-1.6.4-.4.3-.6.7-.6 1.2h-6.4c0-1.8.8-3.2 2.3-4.2 1.5-.9 3.6-1.4 6.5-1.4 1.3 0 2.6.1 3.7.4 1.1.3 2 .6 2.7 1 .8.5 1.3 1.1 1.6 1.8.3.7.5 1.6.5 2.8v9.1c0 .3.1.6.2.8.1.2.3.4.5.6v.5h-6.4m-.6-7.1c-.6.2-1.5.5-2.5.8-1.6.4-2.4 1-2.4 1.7 0 .5.2.8.5 1.1.3.3.8.4 1.4.4 1.1 0 1.9-.3 2.4-.8s.7-1.3.7-2.4v-.5c-.1-.1-.1-.2-.1-.3zm-21.9 3.1c.8 0 1.5-.3 2-1s.7-1.6.7-2.8c0-1.3-.2-2.2-.7-2.9-.4-.6-1.1-.9-2-.9s-1.6.3-2 .9c-.4.6-.6 1.6-.6 2.9 0 1.2.2 2.1.7 2.8.4.6 1.1 1 1.9 1zm9 4.2h-5.8v-2c-.7.9-1.5 1.5-2.4 2-.9.4-1.9.6-3 .6-2.1 0-3.8-.8-5.1-2.4-1.3-1.6-1.9-3.7-1.9-6.3s.6-4.7 2-6.3c1.3-1.6 3-2.4 5-2.4 1 0 1.9.2 2.7.6.8.4 1.5.9 2.2 1.7V3.1h6.4v22.2h-.1zM237 20.4h6.2c-.5 1.8-1.4 3.1-3 4.1-1.5.9-3.6 1.4-6.1 1.4-2.8 0-5-.8-6.7-2.3-1.7-1.6-2.5-3.7-2.5-6.3 0-2.8.8-4.9 2.5-6.5s4-2.4 6.9-2.4 5.2.9 6.8 2.6c1.7 1.7 2.5 4.1 2.5 7.2v.4h-12.2c0 1 .3 1.8.8 2.4s1.3.8 2.2.8c.6 0 1.2-.1 1.6-.3.5-.3.8-.6 1-1.1zm-5.5-5.1h5.8c-.1-1-.4-1.8-.8-2.3-.5-.5-1.2-.8-2.1-.8-.9 0-1.5.3-2 .8-.6.5-.9 1.3-.9 2.3zm-35.6 10V8.9h5.9v2.4c.7-1 1.5-1.7 2.4-2.1.9-.5 1.9-.7 3.1-.7 1.1 0 2 .2 2.8.7s1.5 1.2 2.1 2.2c.8-1 1.7-1.7 2.6-2.2.9-.5 2-.7 3.2-.7 1.9 0 3.4.5 4.5 1.5s1.6 2.4 1.6 4.2v11.2h-6.4v-8.8c0-1-.2-1.8-.5-2.2-.3-.5-.9-.7-1.7-.7s-1.4.2-1.8.7c-.4.5-.6 1.2-.6 2.3v8.7h-6.4v-8.6c0-1.1-.2-1.9-.5-2.4-.4-.5-.9-.7-1.8-.7-.7 0-1.3.2-1.7.7s-.6 1.2-.6 2.2v8.8l-6.2-.1zm-7.9 0l-.4-1.6c-.8.7-1.7 1.3-2.7 1.6-1 .4-2.1.5-3.3.5-1.8 0-3.3-.5-4.3-1.4s-1.5-2.2-1.5-3.9c0-1.6.5-2.8 1.5-3.6 1-.8 2.9-1.3 5.6-1.7.3-.1.8-.1 1.4-.2 2.1-.2 3.1-.8 3.1-1.6 0-.5-.2-.8-.6-1-.4-.2-1-.3-1.8-.3-.7 0-1.2.1-1.6.4-.4.3-.6.7-.6 1.2h-6.4c0-1.8.8-3.2 2.3-4.2 1.5-.9 3.6-1.4 6.5-1.4 1.3 0 2.6.1 3.7.4 1.1.3 2 .6 2.7 1 .8.5 1.3 1.1 1.6 1.8s.5 1.6.5 2.8v9.1c0 .3.1.6.2.8.1.2.3.4.5.6v.5H188v.2zm-.6-7.3c-.6.2-1.5.5-2.5.8-1.6.4-2.4 1-2.4 1.7 0 .5.2.8.5 1.1.3.3.8.4 1.4.4 1.1 0 1.9-.3 2.4-.8s.7-1.3.7-2.4v-.5c-.1-.1-.1-.2-.1-.3zm-29.9 7.3l5.8-8.6-5.3-7.8h7.1l2.1 3.9 2.2-3.9h7.1l-5.5 7.7 5.7 8.7h-7.3l-2.4-4.5-2.3 4.5h-7.2zm-17.4 0V3.1h17.8v5.3h-10.6v3h9v5.1h-9v3.4h11.1v5.4h-18.3zM71.8 76.4c1-3 2-6.1 3-9.1C69.4 52 59.5 48.5 50 63c-1.2 3.6 1.9 7.5.7 11.2 1.3 1.6.8 2.7 2.1 4.3-.1 4.2 1.1 6.1 3.6 8.1.3 1.5-.9 3.5-.6 5-.4 2.7-.7 5.4-1.1 8.1-1.1 1.8-2.1 3.5-3.2 5.3-1.2.7-2.3 1.5-3.5 2.2l-5.4.3c-.9 0-1.8.1-2.7.1-.7.6-1.5 1.1-2.2 1.7-.5.6-1 1.1-1.4 1.7-.5 1.1-1 2.2-1.6 3.3.2 6.7.5 13.3.7 20 .6 1 1.3 2.1 1.9 3.1l4.8 2.4c2.1.7 4.2 1.5 6.2 2.2.2-.5.3-1.1.5-1.6 1-3.8 1.1-7.7.5-11.6-3.2-1.9-4.9-4.9-5.3-9.3 1.2 6.7 4.6 8.4 8.4 8.3 5.5-.2 9.8-7.1 13.7-14.6 2.8-5.2 5.5-10.4 8.3-15.5-2.5-1.2-5-2.4-7.5-3.7 0-2-.1-4-.1-6 1.5-2.7 2.9-5.3 4.4-8 .1-1.2.3-2.4.6-3.6"/><path fill="#4070B7" d="M118.1 41.7c1-.5 1.8-.3 2.8-.3-.9.2-1.6.1-2.5.7-.9.6-5.1 6-6.9 1.7 2.7 2.7 5.6-1.6 6.6-2.1m-27.3 96.2c-37.5 20-83.5-7.7-83.5-52.1 0-50.4 57.6-76.6 94.2-44.7l-.3.4C65.2 10.1 8.3 36 8.3 85.6c0 21.1 11 38.5 26.5 48.3.1-3.6-.1-7.3-.2-10.6-.2-5.9-.3-10.9 1-13 1.8-2.9 4.2-3 6.7-3.1.7 0 1.5-.1 2.2-.2 1.6-.2 3.2-.9 4.6-2 1.3-1 2.6-2.4 3.6-4.4 1.2-2.1 1.7-4.7 1.9-7.3.2-2.3.1-4.6 0-6.5-2.3-2.5-3.7-5.2-4.7-8.2-10.4-4.3.8-28.8 14.2-24.5C49.9 51.9 43.5 75.4 50.4 77v-5.9h19.1v7.2H51.6c1.9 5.8 6.9 13.6 14.2 8.8-3.2 3.5-6.4 3.2-10.1.2.6 11-1 20.7-14.3 20.7-2.6.2-3.8.7-5 2.7-1.5 2.8-.8 13.9-.8 23.4 4.2 2.6 8.7 4.6 13.4 6 .8-3.2 1.1-7 .5-11.6-3.4-1.7-5.3-5.8-5.3-9.5.9 6.4 6.4 10.6 12.6 6.3 7.3-5.1 15.9-25.7 18.2-28.2-.8.6-1.6 1-2.5 1.1-3.7.6-5.4-2.7-5-6.1.5 2.7.9 5.8 4.9 5.2 3.1-.7 6.3-7.3 8.8-10.2 3.2-3.7 9.3-7.3 13.3-11L97 56.8l-5.4-.5 11.1-1c.9-3 1.8-6.1 2.9-9.1.6-1.7 2.1-2.5 3.5-4.4 1.4-2 5.6-7.4 9.1-7.2 3.2.2 6.9 1.6 9.1 4.1 1.3 1.5-2.1 2.5-8.1 4.9 2.1-2.1 8.6-3.6 6.3-5.4-1.2-1.1-3.6-2.8-7.1-2.5s-7.5 5.5-8.2 6.5-3.5 3.4-3.8 4.2c-1.1 2.9-1.8 5.9-2.4 8.8l12.4-1.1v-9.4l1.5-1.3v10.7l24.7 2.2-5.4.5 9.4 71.6c0 4.7-7.1 6.2-10.6 6.2s-10.6-1.6-10.6-6.2l9.4-71.4-17.6 1.6-13.6-1.2c-.7 3.4-1.5 6.7-2.7 10l8 61c0 3.4-4.8 6.2-10.6 6.2-3.5 0-10.6-1.6-10.6-6.2l4.5-34.2c-2 2.5-3.9 4.9-4.6 6.4-2.4 5.1-1 10.8-2 16.1-1.3 6.9-5.5 13.5-6.2 20.5-.1 1.2-.1 2.4.1 3.4 3.3-.9 6.5-2.2 9.7-3.7.2.4.9.8 1.6 1zm-41.2 2.7c9.2 2.6 19.1 2.9 28.8.3-.1-1.4-.2-2.7-.1-3.8.7-7.1 4.2-13.7 5.5-20.6 1-5.2-.4-10.3 2-15.2 1.5-3.1 3.7-5.7 6-8.3l2-15c-3.8 3.7-8.9 6.7-12.1 10-10.1 10.4-13.2 32.1-24.7 38.8 3.9-1.4 2.8-1.7 6.2-2.6s7.5 1.8 11.8 0c2.8-1.1 5.8-3.8 5.4-10.4 1.4 7.2-1.4 10.5-4.6 11.8-5.2 2.1-8.8-1.5-12.1-.6-4.3 1.2-5 4.7-12.5 4h-.4c.1 4.9-.3 8.4-1.2 11.6zm45.7-65.7c.5-.6 1-1.2 1.4-1.9 1-1.6 1.7-3.7 2.4-6.1l-1.3-10h-.2l-2.3 18zm4.6-10.6c.6-2.2 1.2-4.6 1.8-6.9l-2.7-.3.9 7.2zm-.4 5.3c-.6 1.3-1.3 2.7-2.1 4-.6 1-1.4 2-2.3 3l-2 14.9c1.5-1.6 2.9-3.3 4.1-5.1-.6 1.5-2.4 3.8-4.3 6.2l-4.7 35.9h19l-7.7-58.9zm36-12.6h-.2l-9.4 71.5h19L135.5 57z"/><path fill="#FFF" d="M328.5 135.6v-11h1.2v1.8c.4-.7.9-1.2 1.5-1.6s1.3-.5 2-.5c.8 0 1.5.2 2.1.6.5.4.9.9 1.1 1.6.4-.7.9-1.2 1.5-1.6s1.3-.6 2.1-.6c1.2 0 2.1.3 2.7.9s.9 1.5.9 2.7v7.7h-1.3V128c0-.9-.2-1.6-.5-2-.4-.4-1-.6-1.8-.6-1 0-1.8.3-2.3.9-.6.6-.9 1.4-.9 2.4v6.9h-1.3v-7.4c0-.9-.2-1.6-.6-2s-1-.7-1.8-.7c-1 0-1.7.3-2.3.9-.6.6-.9 1.4-.9 2.4v6.8h-1.4m-12.4-5.5c0-1.8.4-3.3 1.3-4.3s2.1-1.5 3.7-1.5 2.9.5 3.7 1.5c.9 1 1.3 2.4 1.3 4.3 0 1.8-.4 3.2-1.3 4.3-.9 1-2.1 1.5-3.7 1.5s-2.8-.5-3.7-1.5c-.9-1-1.3-2.4-1.3-4.3zm1.3 0c0 1.5.3 2.6 1 3.4.6.8 1.6 1.2 2.7 1.2 1.2 0 2.1-.4 2.8-1.2.6-.8 1-2 1-3.5s-.3-2.6-1-3.5c-.7-.8-1.6-1.2-2.8-1.2-1.2 0-2.1.4-2.7 1.2-.7 1-1 2.1-1 3.6zm-4.1 1.7h1.3c-.1 1.3-.6 2.3-1.4 3s-1.9 1.1-3.2 1.1c-1.5 0-2.7-.5-3.5-1.5-.9-1-1.3-2.4-1.3-4.2s.4-3.3 1.3-4.3 2.1-1.6 3.6-1.6c1.2 0 2.3.3 3.1 1 .8.7 1.2 1.6 1.3 2.7h-1.2c-.1-.8-.4-1.4-1-1.9s-1.3-.7-2.1-.7c-1.1 0-2 .4-2.6 1.2-.6.8-1 2-1 3.4 0 1.5.3 2.6 1 3.5.7.8 1.5 1.3 2.6 1.3.9 0 1.6-.3 2.1-.8s.8-1.3 1-2.2zm-11.1 3.8h-1.4v-1.9h1.4v1.9z"/></svg>